<svg width="40" height="40" viewBox="0 0 40 40" xmlns="http://www.w3.org/2000/svg">
    <g fill="none" fill-rule="evenodd">
        <path d="M0 0h40v40H0z"/>
        <path d="M20 6c7.719 0 14 6.28 14 14s-6.281 14-14 14c-7.72 0-14-6.28-14-14S12.28 6 20 6zm0 2C13.383 8 8 13.383 8 20s5.383 12 12 12a11.94 11.94 0 0 0 7.821-2.918C26.235 26.592 23.239 25 20 25c-2.074 0-4.096.642-5.698 1.809a1 1 0 0 1-1.177-1.618C15.065 23.778 17.508 23 20 23c3.813 0 7.251 1.753 9.259 4.625A11.949 11.949 0 0 0 32 20c0-6.617-5.383-12-12-12zm0 4c2.757 0 5 2.243 5 5 0 .88-.231 1.745-.67 2.501a1 1 0 0 1-1.73-1.002A3.004 3.004 0 0 0 20 14c-1.654 0-3 1.346-3 3s1.346 3 3 3a1 1 0 1 1 0 2c-2.757 0-5-2.243-5-5s2.243-5 5-5z" fill="#222"/>
    </g>
</svg>
