<svg width="40" height="40" viewBox="0 0 40 40" xmlns="http://www.w3.org/2000/svg">
    <g fill="none" fill-rule="evenodd">
        <path d="M0 0h40v40H0z"/>
        <path d="M11 11a1 1 0 0 1 1 1v13h16v-4a1 1 0 0 1 2 0v7.307A3.698 3.698 0 0 1 26.307 32H22a1 1 0 0 1 0-2h4.307c.934 0 1.693-.76 1.693-1.693V27h-8v6a1.002 1.002 0 0 1-1.707.707L17 32.414l-1.293 1.293A1.002 1.002 0 0 1 14 33v-6h-2v1.307c0 .514.229.994.629 1.317a1.001 1.001 0 0 1-1.259 1.555A3.682 3.682 0 0 1 10 28.307V12a1 1 0 0 1 1-1zm7 16h-2v3.586l.293-.293a.999.999 0 0 1 1.414 0l.293.293V27zM28.587 6C29.366 6 30 6.634 30 7.413V17a1 1 0 0 1-2 0V8H12v1a1 1 0 0 1-2 0V7.413C10 6.634 10.634 6 11.413 6zM25 10a1 1 0 0 1 1 1v5a1 1 0 0 1-1 1H15a1 1 0 0 1-1-1v-5a1 1 0 0 1 1-1zm-1 2h-8v3h8v-3z" fill="#222"/>
    </g>
</svg>
