<svg width="30" height="30" viewBox="0 0 30 30" xmlns="http://www.w3.org/2000/svg">
    <g fill="none" fill-rule="evenodd">
        <path d="M0 0h30v30H0z"/>
        <path d="M15 5.571c-5.2 0-9.429 3.525-9.429 7.858 0 3.173 2.275 6.017 5.795 7.247a.787.787 0 0 1 .505.559 4.24 4.24 0 0 1-.36 2.922c1.812-.58 1.912-1.907 1.918-2.096a.798.798 0 0 1 .847-.773c.165.013.275.01.404.004a9.1 9.1 0 0 1 .32-.006c5.2 0 9.429-3.525 9.429-7.857 0-4.333-4.23-7.858-9.429-7.858M9.5 26a.786.786 0 0 1-.436-1.44c1.252-.835 1.4-1.898 1.342-2.564C6.499 20.461 4 17.142 4 13.429 4 8.229 8.934 4 15 4s11 4.23 11 9.429-4.934 9.428-11 9.428c-.05 0-.094 0-.137.002C14.531 24.006 13.393 26 9.5 26" fill="#222"/>
    </g>
</svg>
