<svg width="40" height="40" viewBox="0 0 40 40" xmlns="http://www.w3.org/2000/svg">
    <g fill="none" fill-rule="evenodd">
        <path d="M0 0h40v40H0z"/>
        <path d="M19.961 6c5.214.201 9.494 4.022 10.033 8.889.213 1.915-.172 3.86-1.112 5.622a1 1 0 1 1-1.764-.942c.75-1.404 1.056-2.946.888-4.46-.43-3.891-3.89-6.948-8.045-7.111-4.077.163-7.536 3.22-7.967 7.111-.286 2.575.802 5.173 2.91 6.952 1.234 1.042 1.981 2.461 2.084 3.938h6.024c.103-1.477.85-2.896 2.085-3.938a.999.999 0 1 1 1.29 1.528c-.894.755-1.387 1.736-1.387 2.762 0 .134-.02.263-.052.389.023.084.052.167.052.259v.857a3.147 3.147 0 0 1-3.143 3.143h-3.714A3.147 3.147 0 0 1 15 27.856v-.857c0-.092.03-.175.052-.259a1.621 1.621 0 0 1-.052-.389c0-1.026-.493-2.007-1.387-2.762-2.618-2.209-3.966-5.462-3.607-8.7.54-4.867 4.82-8.688 9.955-8.889zm3.01 21.999H17.01c.071.563.552 1 1.134 1h3.714c.58 0 1.041-.44 1.114-1zm-4.209-17.971a1 1 0 1 1 .476 1.942c-.458.113-1.61.495-2.43 1.619A4.288 4.288 0 0 0 16 16.017a1 1 0 0 1-1 .982h-.018A1 1 0 0 1 14 15.982a6.316 6.316 0 0 1 1.192-3.572c1.165-1.597 2.737-2.178 3.57-2.382zM23 31.999h-6a1 1 0 0 0 0 2h6a1 1 0 0 0 0-2m-15-17H7a1 1 0 0 0 0 2h1a1 1 0 0 0 0-2m-1.43-2.38.868.496a.998.998 0 0 0 1.364-.372 1 1 0 0 0-.372-1.364l-.868-.496a1 1 0 1 0-.992 1.736m.802 6.512-.868.496a1 1 0 1 0 .992 1.736l.868-.496a.999.999 0 1 0-.992-1.736m24.695-5.636a.988.988 0 0 0 .495-.132l.868-.496a1 1 0 1 0-.992-1.736l-.868.496a1 1 0 0 0 .497 1.868m1.43 6.38-.869-.496a1 1 0 0 0-.992 1.736l.868.496a1 1 0 0 0 .992-1.736M32 16.999h1a1 1 0 0 0 0-2h-1a1 1 0 0 0 0 2" fill="#222"/>
    </g>
</svg>
